<svg width="14720" height="14720" viewBox="0 0 14720 14720" fill="none" xmlns="http://www.w3.org/2000/svg">
<circle cx="7360" cy="7360" r="7360" fill="#48A6FA"/>
<path d="M6730.07 3747.92H7993.46L8796.85 11271.3L7360.43 12891L5924 11271.3L6730.07 3747.92Z" fill="#212A37"/>
<path d="M6360.72 2335.74C6321.18 2069.32 6527.6 1830 6796.94 1830H7923.91C8193.25 1830 8399.67 2069.32 8360.13 2335.74L8222.34 3264.18C8190.26 3480.37 8004.67 3640.44 7786.12 3640.44H6934.73C6716.18 3640.44 6530.59 3480.37 6498.51 3264.18L6360.72 2335.74Z" fill="white"/>
<path d="M6825.48 10181.1H7258.75V10345H6621.42V9354.66H6825.48V10181.1ZM7580.47 9996.07V10345H7376.42V9354.66H7762.76C7837.12 9354.66 7902.42 9368.27 7958.65 9395.47C8015.33 9422.68 8058.86 9461.45 8089.24 9511.78C8119.62 9561.66 8134.81 9618.57 8134.81 9682.51C8134.81 9779.55 8101.49 9856.18 8034.83 9912.41C7968.62 9968.18 7876.8 9996.07 7759.36 9996.07H7580.47ZM7580.47 9830.79H7762.76C7816.72 9830.79 7857.76 9818.09 7885.87 9792.7C7914.44 9767.3 7928.72 9731.03 7928.72 9683.87C7928.72 9635.35 7914.44 9596.13 7885.87 9566.2C7857.3 9536.27 7817.85 9520.85 7767.52 9519.95H7580.47V9830.79Z" fill="#48A6FA"/>
</svg>
