<svg width="32768" height="14251" viewBox="0 0 32768 14251" fill="none" xmlns="http://www.w3.org/2000/svg">
<path d="M192.956 9381.03H1208.51V12493.7L2513.51 11955.5V13016.7H192.956V9381.03ZM4381.89 12407.4C4446.21 12407.4 4510.53 12404 4574.85 12397.2C4642.55 12390.5 4732.26 12376.9 4843.97 12356.6L4925.22 12341.4L5001.38 12833.9L4823.66 12874.5L4518.99 12950.7C4356.5 12991.3 4221.1 13018.4 4112.77 13032C4007.83 13045.5 3902.89 13052.3 3797.95 13052.3C3608.38 13052.3 3437.42 13018.4 3285.09 12950.7C3132.76 12883 3000.73 12786.5 2889.02 12661.3C2780.7 12536 2696.07 12387.1 2635.13 12214.4C2577.59 12041.8 2548.81 11850.5 2548.81 11640.6C2548.81 11403.7 2580.97 11185.3 2645.29 10985.6C2709.61 10785.9 2801.01 10614.9 2919.49 10472.8C3041.36 10330.6 3185.23 10220.6 3351.1 10142.7C3520.36 10064.8 3709.93 10025.9 3919.81 10025.9C4082.3 10025.9 4232.94 10053 4371.74 10107.2C4510.53 10157.9 4629.01 10237.5 4727.18 10345.8C4781.35 10403.4 4828.74 10459.2 4869.36 10513.4C4909.98 10567.5 4942.14 10630.2 4965.84 10701.3C4989.53 10769 5006.46 10850.2 5016.62 10945C5030.16 11036.4 5036.93 11149.8 5036.93 11285.2V11462.9L3544.06 11625.4C3581.29 11889.5 3669.31 12084.1 3808.1 12209.4C3946.9 12334.6 4138.16 12400.6 4381.89 12407.4ZM4082.3 11021.2C4082.3 10912.8 4077.23 10824.8 4067.07 10757.1C4056.91 10689.4 4041.68 10636.9 4021.37 10599.7C4001.06 10559.1 3975.67 10532 3945.2 10518.5C3914.74 10504.9 3879.19 10498.1 3838.57 10498.1C3743.78 10494.8 3669.31 10540.5 3615.15 10635.2C3560.98 10726.6 3533.9 10899.3 3533.9 11153.2V11173.5L4082.3 11097.3V11021.2ZM5397.09 8913.87L6382.18 8766.62V13006.6H5397.09V8913.87ZM7093.07 12996.4L6255.24 11442.6L7275.87 10071.6H8047.7L7184.47 11148.1L8306.67 13006.6L7093.07 12996.4ZM8555.83 13006.6V8929.11L9540.92 8766.62V10254.4C9571.39 10240.9 9601.86 10227.3 9632.33 10213.8C9662.79 10200.2 9696.64 10185 9733.88 10168.1C9798.2 10141 9854.06 10119 9901.45 10102.1C9948.84 10081.8 9992.85 10066.5 10033.5 10056.4C10077.5 10046.2 10118.1 10039.5 10155.3 10036.1C10192.6 10029.3 10233.2 10025.9 10277.2 10025.9C10534.5 10022.5 10730.8 10115.6 10866.2 10305.2C11005 10491.4 11074.4 10747 11074.4 11071.9V13006.6H10089.3V11219.2C10089.3 11100.7 10084.2 11007.6 10074.1 10939.9C10067.3 10872.2 10048.7 10821.4 10018.2 10787.6C9991.16 10753.7 9952.23 10731.7 9901.45 10721.6C9850.67 10711.4 9782.97 10702.9 9698.34 10696.2C9671.25 10692.8 9644.17 10692.8 9617.09 10696.2C9593.4 10699.6 9568.01 10702.9 9540.92 10706.3V13006.6H8555.83ZM11693.2 10731.7L11667.8 10300.1L11855.7 10223.9V10229C11947.1 10201.9 12030 10179.9 12104.5 10163C12182.4 10142.7 12251.7 10124.1 12312.7 10107.2C12417.6 10080.1 12524.3 10059.8 12632.6 10046.2C12744.3 10032.7 12842.5 10025.9 12927.1 10025.9C13184.4 10025.9 13392.6 10088.5 13551.7 10213.8V10218.9C13639.7 10286.6 13700.6 10371.2 13734.5 10472.8C13771.7 10570.9 13790.3 10696.2 13790.3 10848.5V13006.6H12866.2V12844.1C12866.2 12844.1 12856 12847.5 12835.7 12854.2C12815.4 12861 12786.6 12874.5 12749.4 12894.9H12744.3C12636 12952.4 12544.6 12993 12470.1 13016.7C12399 13040.4 12321.1 13052.3 12236.5 13052.3C12121.4 13052.3 12014.8 13030.3 11916.6 12986.3C11821.8 12938.9 11738.9 12874.5 11667.8 12793.3C11600.1 12712.1 11545.9 12617.3 11505.3 12508.9C11464.7 12400.6 11444.4 12285.5 11444.4 12163.7C11444.4 12028.3 11464.7 11899.6 11505.3 11777.7C11545.9 11655.9 11608.6 11547.6 11693.2 11452.8C11777.8 11358 11884.5 11280.1 12013.1 11219.2C12141.7 11158.3 12292.4 11121 12465 11107.5H12459.9L12861.1 11066.9V10802.8C12861.1 10680.9 12832.3 10599.7 12774.8 10559.1C12720.6 10518.5 12649.5 10496.5 12561.5 10493.1C12490.4 10493.1 12410.9 10503.2 12322.8 10523.5C12234.8 10543.8 12151.9 10567.5 12074 10594.6C11999.6 10618.3 11935.2 10640.3 11881.1 10660.6C11826.9 10680.9 11799.8 10691.1 11799.8 10691.1L11693.2 10731.7ZM12769.7 11564.5C12630.9 11594.9 12534.4 11657.6 12480.2 11752.4C12426.1 11847.1 12399 11952.1 12399 12067.2C12402.4 12182.3 12431.2 12266.9 12485.3 12321.1C12542.9 12371.8 12632.6 12400.6 12754.5 12407.4C12778.1 12407.4 12796.8 12407.4 12810.3 12407.4C12827.2 12407.4 12844.2 12404 12861.1 12397.2V11544.2L12769.7 11564.5ZM14228.9 10122.4L15214 9990.37V13006.6H14228.9V10122.4ZM15269.9 9431.81C15280 9580.76 15234.3 9694.16 15132.8 9772.02C15031.2 9849.88 14894.1 9883.73 14721.5 9873.58C14538.7 9883.73 14393.1 9851.57 14284.8 9777.1C14179.8 9702.62 14132.4 9589.22 14142.6 9436.89C14132.4 9287.94 14178.1 9176.23 14279.7 9101.75C14381.2 9027.28 14518.3 8993.43 14691 9000.2C14873.8 8990.04 15017.7 9022.2 15122.6 9096.68C15230.9 9167.76 15280 9279.48 15269.9 9431.81Z" fill="#48A6FA"/>
<path d="M17099.8 13006.6V9381.03H18308.3C18450.5 9381.03 18577.4 9384.42 18689.2 9391.19C18800.9 9397.96 18899 9411.5 18983.7 9431.81C19071.7 9452.12 19149.5 9479.2 19217.2 9513.05C19284.9 9546.91 19349.3 9589.22 19410.2 9640C19521.9 9734.78 19606.5 9849.88 19664.1 9985.29C19725 10120.7 19755.5 10268 19755.5 10427.1C19755.5 10609.9 19716.6 10780.8 19638.7 10939.9C19564.2 11099 19457.6 11231 19318.8 11336H19313.7C19195.2 11424 19058.1 11486.6 18902.4 11523.9C18746.7 11561.1 18557.1 11579.7 18333.7 11579.7H18115.4V13006.6H17099.8ZM18150.9 11077C18333.7 11077 18469.1 11029.6 18557.1 10934.8C18645.1 10836.7 18687.5 10679.3 18684.1 10462.6C18684.1 10249.3 18641.8 10098.7 18557.1 10010.7C18472.5 9919.28 18335.4 9873.58 18145.8 9873.58H18115.4V11077H18150.9ZM20028.9 10731.7L20003.5 10300.1L20191.4 10223.9V10229C20282.8 10201.9 20365.7 10179.9 20440.2 10163C20518.1 10142.7 20587.5 10124.1 20648.4 10107.2C20753.3 10080.1 20860 10059.8 20968.3 10046.2C21080 10032.7 21178.2 10025.9 21262.8 10025.9C21520.1 10025.9 21728.3 10088.5 21887.4 10213.8V10218.9C21975.4 10286.6 22036.3 10371.2 22070.2 10472.8C22107.4 10570.9 22126 10696.2 22126 10848.5V13006.6H21201.9V12844.1C21201.9 12844.1 21191.7 12847.5 21171.4 12854.2C21151.1 12861 21122.3 12874.5 21085.1 12894.9H21080C20971.7 12952.4 20880.3 12993 20805.8 13016.7C20734.7 13040.4 20656.9 13052.3 20572.2 13052.3C20457.1 13052.3 20350.5 13030.3 20252.3 12986.3C20157.5 12938.9 20074.6 12874.5 20003.5 12793.3C19935.8 12712.1 19881.6 12617.3 19841 12508.9C19800.4 12400.6 19780.1 12285.5 19780.1 12163.7C19780.1 12028.3 19800.4 11899.6 19841 11777.7C19881.6 11655.9 19944.3 11547.6 20028.9 11452.8C20113.5 11358 20220.2 11280.1 20348.8 11219.2C20477.4 11158.3 20628.1 11121 20800.7 11107.5H20795.6L21196.8 11066.9V10802.8C21196.8 10680.9 21168 10599.7 21110.5 10559.1C21056.3 10518.5 20985.2 10496.5 20897.2 10493.1C20826.1 10493.1 20746.6 10503.2 20658.5 10523.5C20570.5 10543.8 20487.6 10567.5 20409.7 10594.6C20335.3 10618.3 20270.9 10640.3 20216.8 10660.6C20162.6 10680.9 20135.5 10691.1 20135.5 10691.1L20028.9 10731.7ZM21105.4 11564.5C20966.6 11594.9 20870.1 11657.6 20816 11752.4C20761.8 11847.1 20734.7 11952.1 20734.7 12067.2C20738.1 12182.3 20766.9 12266.9 20821 12321.1C20878.6 12371.8 20968.3 12400.6 21090.2 12407.4C21113.9 12407.4 21132.5 12407.4 21146 12407.4C21162.9 12407.4 21179.9 12404 21196.8 12397.2V11544.2L21105.4 11564.5ZM24213.9 12828.8C24213.9 12828.8 24193.6 12840.7 24153 12864.4C24115.7 12888.1 24065 12913.5 24000.6 12940.6C23936.3 12967.6 23863.5 12993 23782.3 13016.7C23704.4 13040.4 23624.9 13052.3 23543.6 13052.3C23391.3 13052.3 23250.8 13018.4 23122.2 12950.7C22996.9 12879.6 22888.6 12783.1 22797.2 12661.3C22705.8 12536 22634.7 12390.5 22583.9 12224.6C22536.5 12055.3 22512.8 11874.2 22512.8 11681.3C22512.8 11440.9 22546.7 11219.2 22614.4 11016.1C22682.1 10813 22778.6 10638.6 22903.8 10493.1C23032.5 10344.1 23183.1 10229 23355.8 10147.8C23531.8 10066.5 23726.4 10025.9 23939.7 10025.9C23990.5 10025.9 24036.2 10027.6 24076.8 10031C24120.8 10034.4 24166.5 10042.8 24213.9 10056.4V8908.8L25199 8746.31V13006.6H24213.9V12828.8ZM24173.3 10538.8C23980.3 10542.2 23828 10620 23716.3 10772.3C23608 10924.7 23553.8 11165 23553.8 11493.4C23553.8 11811.6 23602.9 12043.5 23701 12189C23799.2 12331.2 23934.6 12404 24107.3 12407.4C24134.4 12407.4 24154.7 12407.4 24168.2 12407.4C24181.7 12407.4 24197 12404 24213.9 12397.2V10543.8C24200.4 10540.5 24186.8 10538.8 24173.3 10538.8ZM25643.8 13006.6V8929.11L26628.9 8766.62V10254.4C26659.3 10240.9 26689.8 10227.3 26720.3 10213.8C26750.7 10200.2 26784.6 10185 26821.8 10168.1C26886.1 10141 26942 10119 26989.4 10102.1C27036.8 10081.8 27080.8 10066.5 27121.4 10056.4C27165.4 10046.2 27206 10039.5 27243.3 10036.1C27280.5 10029.3 27321.1 10025.9 27365.1 10025.9C27622.4 10022.5 27818.8 10115.6 27954.2 10305.2C28093 10491.4 28162.4 10747 28162.4 11071.9V13006.6H27177.3V11219.2C27177.3 11100.7 27172.2 11007.6 27162 10939.9C27155.3 10872.2 27136.6 10821.4 27106.2 10787.6C27079.1 10753.7 27040.2 10731.7 26989.4 10721.6C26938.6 10711.4 26870.9 10702.9 26786.3 10696.2C26759.2 10692.8 26732.1 10692.8 26705 10696.2C26681.3 10699.6 26656 10702.9 26628.9 10706.3V13006.6H25643.8ZM28781.1 10731.7L28755.7 10300.1L28943.6 10223.9V10229C29035 10201.9 29118 10179.9 29192.4 10163C29270.3 10142.7 29339.7 10124.1 29400.6 10107.2C29505.6 10080.1 29612.2 10059.8 29720.5 10046.2C29832.2 10032.7 29930.4 10025.9 30015 10025.9C30272.3 10025.9 30480.5 10088.5 30639.6 10213.8V10218.9C30727.6 10286.6 30788.6 10371.2 30822.4 10472.8C30859.6 10570.9 30878.3 10696.2 30878.3 10848.5V13006.6H29954.1V12844.1C29954.1 12844.1 29944 12847.5 29923.6 12854.2C29903.3 12861 29874.6 12874.5 29837.3 12894.9H29832.2C29723.9 12952.4 29632.5 12993 29558 13016.7C29486.9 13040.4 29409.1 13052.3 29324.5 13052.3C29209.4 13052.3 29102.7 13030.3 29004.6 12986.3C28909.8 12938.9 28826.8 12874.5 28755.7 12793.3C28688 12712.1 28633.9 12617.3 28593.3 12508.9C28552.6 12400.6 28532.3 12285.5 28532.3 12163.7C28532.3 12028.3 28552.6 11899.6 28593.3 11777.7C28633.9 11655.9 28696.5 11547.6 28781.1 11452.8C28865.8 11358 28972.4 11280.1 29101 11219.2C29229.7 11158.3 29380.3 11121 29553 11107.5H29547.9L29949 11066.9V10802.8C29949 10680.9 29920.3 10599.7 29862.7 10559.1C29808.5 10518.5 29737.5 10496.5 29649.4 10493.1C29578.3 10493.1 29498.8 10503.2 29410.8 10523.5C29322.8 10543.8 29239.8 10567.5 29162 10594.6C29087.5 10618.3 29023.2 10640.3 28969 10660.6C28914.9 10680.9 28887.8 10691.1 28887.8 10691.1L28781.1 10731.7ZM29857.6 11564.5C29718.8 11594.9 29622.4 11657.6 29568.2 11752.4C29514 11847.1 29486.9 11952.1 29486.9 12067.2C29490.3 12182.3 29519.1 12266.9 29573.3 12321.1C29630.8 12371.8 29720.5 12400.6 29842.4 12407.4C29866.1 12407.4 29884.7 12407.4 29898.3 12407.4C29915.2 12407.4 29932.1 12404 29949 12397.2V11544.2L29857.6 11564.5ZM31316.9 10122.4L32301.9 9990.37V13006.6H31316.9V10122.4ZM32357.8 9431.81C32368 9580.76 32322.3 9694.16 32220.7 9772.02C32119.1 9849.88 31982 9883.73 31809.4 9873.58C31626.6 9883.73 31481 9851.57 31372.7 9777.1C31267.8 9702.62 31220.4 9589.22 31230.5 9436.89C31220.4 9287.94 31266.1 9176.23 31367.6 9101.75C31469.2 9027.28 31606.3 8993.43 31778.9 9000.2C31961.7 8990.04 32105.6 9022.2 32210.5 9096.68C32318.9 9167.76 32368 9279.48 32357.8 9431.81Z" fill="#212A37"/>
<circle cx="16384" cy="4209.09" r="4209.09" fill="#48A6FA"/>
<path d="M16023.8 2143.39H16746.3L17205.7 6445.91L16384.2 7372.18L15562.8 6445.91L16023.8 2143.39Z" fill="#212A37"/>
<path d="M15812.5 1335.78C15789.9 1183.42 15908 1046.55 16062 1046.55H16706.5C16860.5 1046.55 16978.6 1183.42 16956 1335.78L16877.2 1866.75C16858.8 1990.38 16752.7 2081.92 16627.7 2081.92H16140.8C16015.8 2081.92 15909.7 1990.38 15891.3 1866.75L15812.5 1335.78Z" fill="white"/>
<path d="M16078.3 5822.43H16326.1V5916.17H15961.6V5349.81H16078.3V5822.43ZM16510.1 5716.63V5916.17H16393.4V5349.81H16614.3C16656.9 5349.81 16694.2 5357.59 16726.4 5373.15C16758.8 5388.71 16783.7 5410.88 16801 5439.67C16818.4 5468.19 16827.1 5500.74 16827.1 5537.3C16827.1 5592.8 16808 5636.62 16769.9 5668.78C16732.1 5700.68 16679.6 5716.63 16612.4 5716.63H16510.1ZM16510.1 5622.1H16614.3C16645.2 5622.1 16668.7 5614.84 16684.7 5600.32C16701.1 5585.8 16709.2 5565.05 16709.2 5538.08C16709.2 5510.33 16701.1 5487.9 16684.7 5470.79C16668.4 5453.67 16645.8 5444.86 16617.1 5444.34H16510.1V5622.1Z" fill="#48A6FA"/>
</svg>
