<svg width="32768" height="6613" viewBox="0 0 32768 6613" fill="none" xmlns="http://www.w3.org/2000/svg">
<path d="M7178.68 1944.17H7976.45V4389.34L9001.59 3966.52V4800.19H7178.68V1944.17ZM10469.3 4321.53C10519.8 4321.53 10570.4 4318.87 10620.9 4313.55C10674.1 4308.23 10744.5 4297.6 10832.3 4281.64L10896.1 4269.68L10955.9 4656.59L10816.3 4688.51L10577 4748.34C10449.4 4780.25 10343 4801.52 10257.9 4812.16C10175.5 4822.8 10093 4828.12 10010.6 4828.12C9861.66 4828.12 9727.37 4801.52 9607.71 4748.34C9488.04 4695.15 9384.33 4619.36 9296.58 4520.97C9211.48 4422.58 9145 4305.58 9097.13 4169.95C9051.93 4034.33 9029.32 3884.09 9029.32 3719.21C9029.32 3533.07 9054.59 3361.55 9105.11 3204.65C9155.64 3047.76 9227.44 2913.46 9320.51 2801.78C9416.24 2690.09 9529.26 2603.66 9659.56 2542.5C9792.52 2481.34 9941.44 2450.76 10106.3 2450.76C10234 2450.76 10352.3 2472.03 10461.3 2514.58C10570.4 2554.47 10663.4 2616.96 10740.5 2702.06C10783.1 2747.26 10820.3 2791.14 10852.2 2833.69C10884.1 2876.24 10909.4 2925.43 10928 2981.28C10946.6 3034.46 10959.9 3098.28 10967.9 3172.74C10978.5 3244.54 10983.9 3333.62 10983.9 3439.99V3579.6L9811.14 3707.25C9840.39 3914.67 9909.53 4067.57 10018.6 4165.97C10127.6 4264.36 10277.8 4316.21 10469.3 4321.53ZM10234 3232.57C10234 3147.48 10230 3078.34 10222 3025.15C10214 2971.97 10202 2930.75 10186.1 2901.5C10170.1 2869.59 10150.2 2848.31 10126.3 2837.68C10102.3 2827.04 10074.4 2821.72 10042.5 2821.72C9968.03 2819.06 9909.53 2854.96 9866.98 2929.42C9824.44 3001.22 9803.16 3136.84 9803.16 3336.28V3352.24L10234 3292.41V3232.57ZM11266.8 1577.2L12040.6 1461.52V4792.22H11266.8V1577.2ZM12599.1 4784.24L11940.9 3563.65L12742.7 2486.66H13349L12670.9 3332.29L13552.4 4792.22L12599.1 4784.24ZM13748.1 4792.22V1589.16L14522 1461.52V2630.26C14545.9 2619.62 14569.8 2608.98 14593.8 2598.34C14617.7 2587.71 14644.3 2575.74 14673.6 2562.45C14724.1 2541.17 14768 2523.89 14805.2 2510.59C14842.4 2494.63 14877 2482.67 14908.9 2474.69C14943.5 2466.71 14975.4 2461.39 15004.6 2458.74C15033.9 2453.42 15065.8 2450.76 15100.4 2450.76C15302.5 2448.1 15456.7 2521.23 15563.1 2670.14C15672.1 2816.4 15726.6 3017.17 15726.6 3272.46V4792.22H14952.8V3388.14C14952.8 3295.07 14948.8 3221.94 14940.8 3168.75C14935.5 3115.57 14920.9 3075.68 14896.9 3049.09C14875.7 3022.49 14845.1 3005.21 14805.2 2997.23C14765.3 2989.25 14712.1 2982.6 14645.6 2977.29C14624.4 2974.63 14603.1 2974.63 14581.8 2977.29C14563.2 2979.95 14543.3 2982.6 14522 2985.26V4792.22H13748.1ZM16212.7 3005.21L16192.7 2666.16L16340.3 2606.32V2610.31C16412.1 2589.04 16477.3 2571.75 16535.8 2558.46C16596.9 2542.5 16651.5 2527.88 16699.3 2514.58C16781.8 2493.31 16865.5 2477.35 16950.6 2466.71C17038.4 2456.08 17115.5 2450.76 17182 2450.76C17384.1 2450.76 17547.6 2499.95 17672.6 2598.34V2602.33C17741.8 2655.52 17789.6 2722 17816.2 2801.78C17845.5 2878.89 17860.1 2977.29 17860.1 3096.95V4792.22H17134.1V4664.57C17134.1 4664.57 17126.1 4667.23 17110.2 4672.55C17094.2 4677.87 17071.6 4688.51 17042.4 4704.46H17038.4C16953.3 4749.67 16881.5 4781.58 16823 4800.19C16767.1 4818.81 16706 4828.12 16639.5 4828.12C16549.1 4828.12 16465.3 4810.83 16388.2 4776.26C16313.7 4739.03 16248.6 4688.51 16192.7 4624.68C16139.6 4560.86 16097 4486.4 16065.1 4401.31C16033.2 4316.21 16017.2 4225.8 16017.2 4130.07C16017.2 4023.7 16033.2 3922.64 16065.1 3826.91C16097 3731.18 16146.2 3646.08 16212.7 3571.63C16279.2 3497.17 16362.9 3436 16464 3388.14C16565 3340.27 16683.4 3311.02 16819 3300.38H16815L17130.1 3268.47V3061.05C17130.1 2965.32 17107.5 2901.5 17062.3 2869.59C17019.8 2837.68 16963.9 2820.39 16894.8 2817.73C16838.9 2817.73 16776.4 2825.71 16707.3 2841.67C16638.2 2857.62 16573 2876.24 16511.9 2897.51C16453.4 2916.12 16402.8 2933.41 16360.3 2949.36C16317.7 2965.32 16296.5 2973.3 16296.5 2973.3L16212.7 3005.21ZM17058.3 3659.38C16949.3 3683.31 16873.5 3732.51 16831 3806.97C16788.4 3881.43 16767.1 3963.86 16767.1 4054.28C16769.8 4144.69 16792.4 4211.17 16835 4253.72C16880.2 4293.61 16950.6 4316.21 17046.4 4321.53C17065 4321.53 17079.6 4321.53 17090.2 4321.53C17103.5 4321.53 17116.8 4318.87 17130.1 4313.55V3643.43L17058.3 3659.38ZM18204.6 2526.55L18978.5 2422.84V4792.22H18204.6V2526.55ZM19022.3 1984.06C19030.3 2101.07 18994.4 2190.15 18914.6 2251.31C18834.9 2312.48 18727.2 2339.07 18591.5 2331.09C18447.9 2339.07 18333.6 2313.81 18248.5 2255.3C18166.1 2196.8 18128.8 2107.72 18136.8 1988.05C18128.8 1871.04 18164.7 1783.29 18244.5 1724.79C18324.3 1666.28 18432 1639.69 18567.6 1645.01C18711.2 1637.03 18824.2 1662.29 18906.7 1720.8C18991.8 1776.64 19030.3 1864.4 19022.3 1984.06Z" fill="#48A6FA"/>
<path d="M20459.9 4792.22V1944.17H21409.2C21520.9 1944.17 21620.6 1946.83 21708.4 1952.15C21796.1 1957.47 21873.2 1968.11 21939.7 1984.06C22008.9 2000.02 22070 2021.29 22123.2 2047.88C22176.4 2074.48 22226.9 2107.72 22274.8 2147.6C22362.5 2222.06 22429 2312.48 22474.2 2418.85C22522.1 2525.22 22546 2640.89 22546 2765.88C22546 2909.48 22515.4 3043.77 22454.3 3168.75C22395.8 3293.74 22312 3397.45 22203 3479.88H22199C22105.9 3549.02 21998.2 3598.22 21875.9 3627.47C21753.6 3656.72 21604.7 3671.35 21429.1 3671.35H21257.6V4792.22H20459.9ZM21285.5 3276.45C21429.1 3276.45 21535.5 3239.22 21604.7 3164.76C21673.8 3087.64 21707 2963.99 21704.4 2793.8C21704.4 2626.27 21671.1 2507.93 21604.7 2438.79C21538.2 2366.99 21430.5 2331.09 21281.6 2331.09H21257.6V3276.45H21285.5ZM22760.8 3005.21L22740.9 2666.16L22888.4 2606.32V2610.31C22960.2 2589.04 23025.4 2571.75 23083.9 2558.46C23145.1 2542.5 23199.6 2527.88 23247.4 2514.58C23329.9 2493.31 23413.6 2477.35 23498.7 2466.71C23586.5 2456.08 23663.6 2450.76 23730.1 2450.76C23932.2 2450.76 24095.7 2499.95 24220.7 2598.34V2602.33C24289.9 2655.52 24337.7 2722 24364.3 2801.78C24393.6 2878.89 24408.2 2977.29 24408.2 3096.95V4792.22H23682.2V4664.57C23682.2 4664.57 23674.2 4667.23 23658.3 4672.55C23642.3 4677.87 23619.7 4688.51 23590.5 4704.46H23586.5C23501.4 4749.67 23429.6 4781.58 23371.1 4800.19C23315.3 4818.81 23254.1 4828.12 23187.6 4828.12C23097.2 4828.12 23013.4 4810.83 22936.3 4776.26C22861.9 4739.03 22796.7 4688.51 22740.9 4624.68C22687.7 4560.86 22645.1 4486.4 22613.2 4401.31C22581.3 4316.21 22565.3 4225.8 22565.3 4130.07C22565.3 4023.7 22581.3 3922.64 22613.2 3826.91C22645.1 3731.18 22694.3 3646.08 22760.8 3571.63C22827.3 3497.17 22911 3436 23012.1 3388.14C23113.1 3340.27 23231.5 3311.02 23367.1 3300.38H23363.1L23678.2 3268.47V3061.05C23678.2 2965.32 23655.6 2901.5 23610.4 2869.59C23567.9 2837.68 23512 2820.39 23442.9 2817.73C23387.1 2817.73 23324.6 2825.71 23255.4 2841.67C23186.3 2857.62 23121.1 2876.24 23060 2897.51C23001.5 2916.12 22950.9 2933.41 22908.4 2949.36C22865.8 2965.32 22844.6 2973.3 22844.6 2973.3L22760.8 3005.21ZM23606.4 3659.38C23497.4 3683.31 23421.6 3732.51 23379.1 3806.97C23336.5 3881.43 23315.3 3963.86 23315.3 4054.28C23317.9 4144.69 23340.5 4211.17 23383.1 4253.72C23428.3 4293.61 23498.7 4316.21 23594.5 4321.53C23613.1 4321.53 23627.7 4321.53 23638.3 4321.53C23651.6 4321.53 23664.9 4318.87 23678.2 4313.55V3643.43L23606.4 3659.38ZM26048.3 4652.61C26048.3 4652.61 26032.4 4661.91 26000.5 4680.53C25971.2 4699.14 25931.3 4719.09 25880.8 4740.36C25830.3 4761.63 25773.1 4781.58 25709.3 4800.19C25648.1 4818.81 25585.6 4828.12 25521.8 4828.12C25402.1 4828.12 25291.8 4801.52 25190.7 4748.34C25092.3 4692.49 25007.2 4616.71 24935.4 4520.97C24863.6 4422.58 24807.8 4308.23 24767.9 4177.93C24730.7 4044.97 24712.1 3902.7 24712.1 3751.12C24712.1 3562.32 24738.7 3388.14 24791.8 3228.58C24845 3069.03 24920.8 2932.08 25019.2 2817.73C25120.3 2700.73 25238.6 2610.31 25374.2 2546.49C25512.5 2482.67 25665.4 2450.76 25832.9 2450.76C25872.8 2450.76 25908.7 2452.09 25940.6 2454.75C25975.2 2457.41 26011.1 2464.05 26048.3 2474.69V1573.21L26822.2 1445.57V4792.22H26048.3V4652.61ZM26016.4 2853.63C25864.8 2856.29 25745.2 2917.45 25657.4 3037.12C25572.3 3156.78 25529.8 3345.59 25529.8 3603.54C25529.8 3853.5 25568.3 4035.66 25645.5 4150.01C25722.6 4261.7 25828.9 4318.87 25964.6 4321.53C25985.8 4321.53 26001.8 4321.53 26012.4 4321.53C26023.1 4321.53 26035 4318.87 26048.3 4313.55V2857.62C26037.7 2854.96 26027.1 2853.63 26016.4 2853.63ZM27171.6 4792.22V1589.16L27945.4 1461.52V2630.26C27969.3 2619.62 27993.3 2608.98 28017.2 2598.34C28041.1 2587.71 28067.7 2575.74 28097 2562.45C28147.5 2541.17 28191.4 2523.89 28228.6 2510.59C28265.8 2494.63 28300.4 2482.67 28332.3 2474.69C28366.9 2466.71 28398.8 2461.39 28428.1 2458.74C28457.3 2453.42 28489.2 2450.76 28523.8 2450.76C28725.9 2448.1 28880.1 2521.23 28986.5 2670.14C29095.5 2816.4 29150 3017.17 29150 3272.46V4792.22H28376.2V3388.14C28376.2 3295.07 28372.2 3221.94 28364.2 3168.75C28358.9 3115.57 28344.3 3075.68 28320.4 3049.09C28299.1 3022.49 28268.5 3005.21 28228.6 2997.23C28188.7 2989.25 28135.5 2982.6 28069.1 2977.29C28047.8 2974.63 28026.5 2974.63 28005.2 2977.29C27986.6 2979.95 27966.7 2982.6 27945.4 2985.26V4792.22H27171.6ZM29636.1 3005.21L29616.2 2666.16L29763.8 2606.32V2610.31C29835.6 2589.04 29900.7 2571.75 29959.2 2558.46C30020.4 2542.5 30074.9 2527.88 30122.8 2514.58C30205.2 2493.31 30289 2477.35 30374.1 2466.71C30461.8 2456.08 30538.9 2450.76 30605.4 2450.76C30807.5 2450.76 30971.1 2499.95 31096 2598.34V2602.33C31165.2 2655.52 31213 2722 31239.6 2801.78C31268.9 2878.89 31283.5 2977.29 31283.5 3096.95V4792.22H30557.5V4664.57C30557.5 4664.57 30549.6 4667.23 30533.6 4672.55C30517.7 4677.87 30495.1 4688.51 30465.8 4704.46H30461.8C30376.7 4749.67 30304.9 4781.58 30246.4 4800.19C30190.6 4818.81 30129.4 4828.12 30062.9 4828.12C29972.5 4828.12 29888.7 4810.83 29811.6 4776.26C29737.2 4739.03 29672 4688.51 29616.2 4624.68C29563 4560.86 29520.4 4486.4 29488.5 4401.31C29456.6 4316.21 29440.7 4225.8 29440.7 4130.07C29440.7 4023.7 29456.6 3922.64 29488.5 3826.91C29520.4 3731.18 29569.6 3646.08 29636.1 3571.63C29702.6 3497.17 29786.4 3436 29887.4 3388.14C29988.5 3340.27 30106.8 3311.02 30242.4 3300.38H30238.4L30553.6 3268.47V3061.05C30553.6 2965.32 30531 2901.5 30485.7 2869.59C30443.2 2837.68 30387.4 2820.39 30318.2 2817.73C30262.4 2817.73 30199.9 2825.71 30130.7 2841.67C30061.6 2857.62 29996.4 2876.24 29935.3 2897.51C29876.8 2916.12 29826.3 2933.41 29783.7 2949.36C29741.2 2965.32 29719.9 2973.3 29719.9 2973.3L29636.1 3005.21ZM30481.8 3659.38C30372.7 3683.31 30296.9 3732.51 30254.4 3806.97C30211.8 3881.43 30190.6 3963.86 30190.6 4054.28C30193.2 4144.69 30215.8 4211.17 30258.4 4253.72C30303.6 4293.61 30374.1 4316.21 30469.8 4321.53C30488.4 4321.53 30503 4321.53 30513.7 4321.53C30527 4321.53 30540.3 4318.87 30553.6 4313.55V3643.43L30481.8 3659.38ZM31628.1 2526.55L32401.9 2422.84V4792.22H31628.1V2526.55ZM32445.8 1984.06C32453.7 2101.07 32417.8 2190.15 32338.1 2251.31C32258.3 2312.48 32150.6 2339.07 32015 2331.09C31871.4 2339.07 31757 2313.81 31671.9 2255.3C31589.5 2196.8 31552.3 2107.72 31560.2 1988.05C31552.3 1871.04 31588.2 1783.29 31667.9 1724.79C31747.7 1666.28 31855.4 1639.69 31991 1645.01C32134.6 1637.03 32247.7 1662.29 32330.1 1720.8C32415.2 1776.64 32453.7 1864.4 32445.8 1984.06Z" fill="#212A37"/>
<circle cx="3306.45" cy="3306.45" r="3306.45" fill="#48A6FA"/>
<path d="M3023.46 1683.74H3591.03L3951.95 5063.58L3306.64 5791.21L2661.33 5063.58L3023.46 1683.74Z" fill="#212A37"/>
<path d="M2857.53 1049.32C2839.76 929.634 2932.5 822.12 3053.5 822.12H3559.78C3680.78 822.12 3773.52 929.634 3755.76 1049.32L3693.85 1466.42C3679.44 1563.54 3596.07 1635.45 3497.88 1635.45H3115.4C3017.21 1635.45 2933.84 1563.54 2919.43 1466.42L2857.53 1049.32Z" fill="white"/>
<path d="M3066.32 4573.81H3260.96V4647.45H2974.65V4202.54H3066.32V4573.81ZM3405.5 4490.69V4647.45H3313.83V4202.54H3487.39C3520.8 4202.54 3550.13 4208.66 3575.39 4220.88C3600.85 4233.1 3620.41 4250.52 3634.06 4273.13C3647.71 4295.54 3654.53 4321.1 3654.53 4349.83C3654.53 4393.42 3639.56 4427.85 3609.61 4453.11C3579.87 4478.17 3538.62 4490.69 3485.86 4490.69H3405.5ZM3405.5 4416.44H3487.39C3511.63 4416.44 3530.06 4410.74 3542.7 4399.33C3555.53 4387.92 3561.95 4371.62 3561.95 4350.44C3561.95 4328.64 3555.53 4311.02 3542.7 4297.58C3529.86 4284.13 3512.14 4277.21 3489.53 4276.8H3405.5V4416.44Z" fill="#48A6FA"/>
</svg>
