<svg id="Capa_1" enable-background="new 0 0 512 512" height="512" viewBox="0 0 512 512" width="512" xmlns="http://www.w3.org/2000/svg"><g><path d="m204.903 264.124c-43.237 19.401-73.548 62.634-74.123 112.881l125.22 78.995 16-96-16-76.182c-24.987 0-49.975-6.565-51.097-19.694z" fill="#53e261"/><path d="m307.097 264.124c-1.122 13.13-26.109 19.694-51.097 19.694v172.182l125.219-78.995c-.574-50.247-30.885-93.48-74.122-112.881z" fill="#00cb71"/><path d="m184.578 29.774c-18.014 18.173-29.144 43.182-29.144 70.792v52.088c0 55.541 45.025 100.566 100.566 100.566l13-106.22-13-93.649z" fill="#ffccbd"/><path d="m355.541 86.21-99.541-32.859v199.869c55.541 0 100.566-45.025 100.566-100.566v-52.088c0-4.875-.354-9.667-1.025-14.356z" fill="#ffbda9"/><path d="m256 311 11-30-11-27.78c-18.19 0-35.486 3.899-51.097 10.904 2.245 26.259 24.257 46.876 51.097 46.876z" fill="#ffccbd"/><path d="m307.097 264.124c-15.611-7.005-32.907-10.904-51.097-10.904v57.78c26.84 0 48.852-20.617 51.097-46.876z" fill="#ffbda9"/><path d="m256 0c-27.931 0-53.199 11.39-71.422 29.774 7.823 6.662 31.996 25.36 71.422 39.424l25-38.198z" fill="#c9885b"/><path d="m256 0v69.198c26.433 9.429 59.717 16.776 99.541 17.012-6.967-48.74-48.875-86.21-99.541-86.21z" fill="#956641"/><path d="m238.256 160.445h-30c0 26.326 21.418 47.744 47.744 47.744l9-15.189-9-14.811c-9.784 0-17.744-7.96-17.744-17.744z" fill="#c9885b"/><path d="m273.744 160.445c0 9.784-7.96 17.744-17.744 17.744v30c26.326 0 47.744-21.417 47.744-47.744z" fill="#956641"/><path d="m43 6.415h30v62.169h-30z" fill="#ffea80" transform="matrix(.434 -.901 .901 .434 -.968 73.458)"/><path d="m0 141.418h58v30h-58z" fill="#ffea80"/><path d="m422.915 22.5h62.169v30h-62.169z" fill="#fc6" transform="matrix(.901 -.434 .434 .901 28.766 200.895)"/><path d="m454 141.418h58v30h-58z" fill="#fc6"/><path d="m256 444.742c-21.984-43.968-66.923-71.742-116.081-71.742h-92.919v75.105z" fill="#f5fcff"/><path d="m372.081 373c-49.158 0-94.097 27.774-116.081 71.742l209 3.363v-75.105z" fill="#e1ebf0"/><path d="m12.81 444.742v67.258h243.19l22-34-22-33.258z" fill="#8fc2fb"/><path d="m256 444.742h243.19v67.258h-243.19z" fill="#7aa6f4"/></g></svg>