<svg id="Capa_1" enable-background="new 0 0 512 512" height="512" viewBox="0 0 512 512" width="512" xmlns="http://www.w3.org/2000/svg"><g><g><path d="m394.367 178.574v-66.749c0-2.949-1.367-5.732-3.702-7.535l-129.336-102.306c-3.435-2.652-8.229-2.644-11.655.018l-128.362 102.289c-2.321 1.803-3.679 4.577-3.679 7.517v66.767h-107.786c-5.257 0-9.518 4.261-9.847 9.518v323.907h512v-323.908c-.329-5.257-4.591-9.518-9.847-9.518z" fill="#f9f9f9"/><path d="m502.153 178.574h-107.786v-66.749c0-2.949-1.367-5.732-3.702-7.535l-129.336-102.306c-1.578-1.218-3.442-1.868-5.329-1.964v511.98h256v-324.154c-.329-5.011-4.591-9.272-9.847-9.272z" fill="#e2dff4"/></g><g><g><path d="m190.88 512v-135.22c0-8.288 6.722-15.006 15.011-15l100.24.071c8.28.006 14.989 6.72 14.989 15v135.149z" fill="#5e54ac"/><path d="m306.131 361.851-50.131-.036v150.185h65.12v-135.149c0-8.28-6.709-14.994-14.989-15z" fill="#453d81"/></g><g><g><g><path d="m256 191.841c-29.132 0-52.833-23.701-52.833-52.833 0-29.133 23.701-52.834 52.833-52.834s52.833 23.701 52.833 52.834c0 29.132-23.701 52.833-52.833 52.833z" fill="#e2dff4"/><path d="m256 86.174v105.668c29.132 0 52.833-23.701 52.833-52.833 0-29.134-23.701-52.835-52.833-52.835z" fill="#bebcdd"/></g><g><path d="m278.833 139.008c0-12.591-10.243-22.834-22.833-22.834s-22.833 10.243-22.833 22.834c0 12.59 10.243 22.833 22.833 22.833s22.833-10.243 22.833-22.833z" fill="#9ddff6"/><path d="m256 116.174v45.668c12.59 0 22.833-10.243 22.833-22.833 0-12.592-10.243-22.835-22.833-22.835z" fill="#6ba7ff"/></g></g><g><g><path d="m437.271 436.707h-60.273c-8.284 0-15-6.716-15-15v-58.867c0-8.284 6.716-15 15-15h60.273c8.284 0 15 6.716 15 15v58.866c0 8.285-6.716 15.001-15 15.001zm-45.273-30h30.273v-28.867h-30.273z" fill="#bebcdd"/><path d="m391.998 377.84h30.272v28.866h-30.272z" fill="#6ba7ff"/></g><g><path d="m437.271 316.707h-60.273c-8.284 0-15-6.716-15-15v-58.867c0-8.284 6.716-15 15-15h60.273c8.284 0 15 6.716 15 15v58.866c0 8.285-6.716 15.001-15 15.001zm-45.273-30h30.273v-28.867h-30.273z" fill="#bebcdd"/><path d="m391.998 257.84h30.272v28.866h-30.272z" fill="#6ba7ff"/></g><g><path d="m135.002 436.707h-60.272c-8.284 0-15-6.716-15-15v-58.867c0-8.284 6.716-15 15-15h60.272c8.284 0 15 6.716 15 15v58.866c0 8.285-6.715 15.001-15 15.001z" fill="#e2dff4"/><path d="m89.73 377.84h30.272v28.866h-30.272z" fill="#9ddff6"/></g><g><path d="m135.002 316.707h-60.272c-8.284 0-15-6.716-15-15v-58.867c0-8.284 6.716-15 15-15h60.272c8.284 0 15 6.716 15 15v58.866c0 8.285-6.715 15.001-15 15.001z" fill="#e2dff4"/><path d="m89.73 257.84h30.272v28.866h-30.272z" fill="#9ddff6"/></g><g><g><path d="m285.433 317.41h-58.866c-8.284 0-15-6.716-15-15v-60.273c0-8.284 6.716-15 15-15h58.866c8.284 0 15 6.716 15 15v60.273c0 8.284-6.716 15-15 15z" fill="#e2dff4"/><path d="m285.433 227.137h-29.433v90.273h29.433c8.284 0 15-6.716 15-15v-60.273c0-8.284-6.716-15-15-15z" fill="#bebcdd"/></g><g><path d="m241.567 257.137h28.866v30.272h-28.866z" fill="#9ddff6"/><path d="m256 257.137h14.433v30.272h-14.433z" fill="#6ba7ff"/></g></g></g></g></g><g><path d="m125.573 198.008h-125.573v-30h125.573c8.284 0 15 6.716 15 15s-6.716 15-15 15z" fill="#ff5c5c"/><path d="m512 198.008h-125.572c-8.284 0-15-6.716-15-15s6.716-15 15-15h125.572z" fill="#d0004f"/><g><path d="m386.417 131.002c-3.201 0-6.426-1.02-9.155-3.127l-121.646-93.903-120.842 93.874c-6.542 5.083-15.966 3.899-21.048-2.644-5.082-6.542-3.898-15.966 2.644-21.048l130.015-101c5.4-4.196 12.955-4.207 18.368-.028l130.841 101c6.558 5.062 7.77 14.482 2.708 21.04-2.956 3.828-7.397 5.836-11.885 5.836z" fill="#ff5c5c"/><path d="m395.594 104.127-130.841-101c-2.585-1.996-5.659-3.024-8.753-3.109v34.251l121.262 93.606c2.729 2.107 5.954 3.127 9.155 3.127 4.488 0 8.93-2.007 11.885-5.835 5.061-6.559 3.849-15.978-2.708-21.04z" fill="#d0004f"/></g></g></g></svg>