<svg id="Capa_1" enable-background="new 0 0 512 512" height="512" viewBox="0 0 512 512" width="512" xmlns="http://www.w3.org/2000/svg"><g><path d="m463.505 49.669c-138.336-10.904-276.673-10.904-415.009 0-20.655 1.628-37.156 17.778-39.389 38.376-12.142 111.97-12.142 223.94 0 335.911 2.234 20.597 18.735 36.747 39.389 38.375 138.336 10.904 276.673 10.904 415.009 0 20.654-1.628 37.155-17.778 39.389-38.375 12.142-111.97 12.142-223.94 0-335.911-2.234-20.598-18.735-36.748-39.389-38.376z" fill="#e4f6ff"/><path d="m508.584 153.12-.206-.021c-168.249-14.835-336.498-14.835-504.747 0l-.206.031c1.432-21.696 3.327-43.381 5.687-65.077 2.235-20.603 18.738-36.756 39.383-38.384 138.343-10.899 276.676-10.899 415.019 0 20.645 1.628 37.148 17.781 39.384 38.385 2.359 21.685 4.254 43.381 5.686 65.066z" fill="#617881"/><circle cx="65.19" cy="96.197" fill="#da4a54" r="24.165"/><circle cx="210.18" cy="96.197" fill="#86f1a7" r="24.165"/><circle cx="137.685" cy="96.197" fill="#f4dd45" r="24.165"/><g fill="#617881"><path d="m453.877 221.468h-310.222c-4.267 0-7.726-3.459-7.726-7.726s3.459-7.726 7.726-7.726h310.222c4.267 0 7.726 3.459 7.726 7.726.001 4.267-3.459 7.726-7.726 7.726z"/><path d="m453.877 265.323h-310.222c-4.267 0-7.726-3.459-7.726-7.726s3.459-7.726 7.726-7.726h310.222c4.267 0 7.726 3.459 7.726 7.726s-3.459 7.726-7.726 7.726z"/><path d="m453.877 309.178h-395.754c-4.267 0-7.726-3.459-7.726-7.726s3.459-7.726 7.726-7.726h395.754c4.267 0 7.726 3.459 7.726 7.726.001 4.267-3.459 7.726-7.726 7.726z"/><path d="m453.877 353.033h-395.754c-4.267 0-7.726-3.459-7.726-7.726s3.459-7.726 7.726-7.726h395.754c4.267 0 7.726 3.459 7.726 7.726s-3.459 7.726-7.726 7.726z"/><path d="m196.411 396.893h-138.285c-4.267 0-7.726-3.459-7.726-7.726s3.459-7.726 7.726-7.726h138.286c4.267 0 7.726 3.459 7.726 7.726s-3.46 7.726-7.727 7.726z"/></g><g><path d="m364.391 327.09c-3.891 0-7.24-2.932-7.671-6.889-1.518-13.909 13.509-37.201 38.153-74.052 20.125-30.095 42.936-64.206 46.115-83.926 2.721-16.902-4.513-28.772-21.502-35.279-3.985-1.526-5.978-5.994-4.452-9.979 1.527-3.985 5.995-5.977 9.979-4.452 23.723 9.086 35.106 28.1 31.231 52.168-3.715 23.051-26.496 57.115-48.526 90.059-9.95 14.879-19.348 28.933-26.113 40.735-9.128 15.924-9.701 21.426-9.524 23.052.463 4.242-2.601 8.056-6.843 8.519-.284.029-.567.044-.847.044z" fill="#b9e4ef"/><path d="m423.649 126.671 13.811-25.57c3.491-6.463 1.077-14.546-5.385-18.036l-19.832-10.712c-6.472-3.496-14.546-1.077-18.036 5.385l-13.811 25.57" fill="#e4f6ff"/><path d="m428.504 81.136c-6.472-3.496-14.545-1.077-18.036 5.385l-13.811 25.57-16.261-8.783 13.811-25.57c3.491-6.463 11.565-8.881 18.036-5.385z" fill="#b9e4ef"/><path d="m374.999 258.224c-47.216 87.414-102.946 148.861-124.473 137.233s-.694-91.924 46.522-179.338c23.941-44.323 50.075-81.974 72.819-106.798 6.182-6.747 16.168-8.401 24.22-4.052l20.411 11.025c8.052 4.349 12.144 13.607 9.891 22.476-8.29 32.632-25.449 75.132-49.39 119.454z" fill="#6bbef6"/><path d="m250.526 395.458c-21.527-11.628-.694-91.924 46.522-179.338 23.941-44.323 50.073-81.972 72.817-106.803 6.182-6.742 16.172-8.394 24.221-4.047l7.396 3.995c-2.212-1.195-7.09 3.219-11.84 10.734-17.514 27.656-40.392 67.062-64.333 111.386-47.215 87.414-80.702 160.875-74.783 164.073z" fill="#528ecb"/><path d="m245.381 411.548c-1.378 0-2.774-.369-4.035-1.143-3.636-2.233-4.774-6.991-2.542-10.627l5.134-8.362c2.232-3.636 6.989-4.775 10.627-2.542 3.636 2.233 4.774 6.991 2.542 10.627l-5.134 8.362c-1.459 2.375-3.994 3.685-6.592 3.685z" fill="#da4a54"/></g><path d="m100.512 214.146c3.149-4.214 5.015-9.439 5.015-15.092 0-13.931-11.334-25.265-25.265-25.265h-22.14c-4.267 0-7.726 3.459-7.726 7.726v35.097.057 41.066c0 2.055.819 4.026 2.275 5.476 1.448 1.442 3.408 2.251 5.451 2.251h.034s20.361-.091 25.973-.091c15.573 0 28.243-12.67 28.243-28.242 0-9.468-4.688-17.856-11.86-22.983zm-20.249-24.903c5.411 0 9.812 4.401 9.812 9.812 0 5.41-4.401 9.812-9.812 9.812-1.627 0-4.693.009-8.036.021h-6.378v-19.644h14.414zm3.866 60.676c-3.339 0-11.883.032-18.28.058v-25.613c2.05-.008 4.282-.017 6.406-.024h11.875c7.052 0 12.79 5.737 12.79 12.79-.001 7.052-5.738 12.789-12.791 12.789z" fill="#da4a54"/></g></svg>