<?xml version="1.0" encoding="UTF-8"?>
<svg xmlns="http://www.w3.org/2000/svg" xmlns:xlink="http://www.w3.org/1999/xlink" width="512" height="512" viewBox="0 0 512 512"><defs><linearGradient id="a" data-name="New Gradient Swatch 1" x1="54.495" y1="569.505" x2="629.407" y2="-5.407" gradientUnits="userSpaceOnUse"><stop offset="0" stop-color="#003f8a"/><stop offset="0.518" stop-color="#00d7df"/><stop offset="1" stop-color="#006df0"/></linearGradient><linearGradient id="c" x1="-63.505" y1="451.505" x2="511.407" y2="-123.407" xlink:href="#a"/><linearGradient id="d" x1="-111.505" y1="403.505" x2="463.407" y2="-171.407" xlink:href="#a"/></defs><g><path d="M496,240H392V144h16a8,8,0,0,0,6.15-13.12l-40-48a8.006,8.006,0,0,0-12.3,0l-40,48A8,8,0,0,0,328,144h16v96H16a8,8,0,0,0-8,8V488a8,8,0,0,0,8,8H496a8,8,0,0,0,8-8V248A8,8,0,0,0,496,240ZM368,100.5,390.92,128H384a8,8,0,0,0-8,8V240H360V136a8,8,0,0,0-8-8h-6.92ZM24,256H63.32A48.094,48.094,0,0,1,24,295.32Zm0,224V440.68A48.094,48.094,0,0,1,63.32,480Zm464,0H448.68A48.094,48.094,0,0,1,488,440.68Zm0-55.48A64.1,64.1,0,0,0,432.52,480H79.48A64.1,64.1,0,0,0,24,424.52V311.48A64.1,64.1,0,0,0,79.48,256H432.52A64.1,64.1,0,0,0,488,311.48Zm0-129.2A48.094,48.094,0,0,1,448.68,256H488Z" fill="url(#a)"/><path d="M256,448a80,80,0,1,0-80-80A80.091,80.091,0,0,0,256,448Zm0-144a64,64,0,1,1-64,64A64.072,64.072,0,0,1,256,304Z" fill="url(#a)"/><path d="M216,80h16V224a8,8,0,0,0,8,8h32a8,8,0,0,0,8-8V80h16a8,8,0,0,0,6.146-13.121l-40-48a8,8,0,0,0-12.292,0l-40,48A8,8,0,0,0,216,80Zm40-43.5L278.92,64H272a8,8,0,0,0-8,8V216H248V72a8,8,0,0,0-8-8h-6.92Z" fill="url(#c)"/><path d="M104,144h16v48a8,8,0,0,0,8,8h32a8,8,0,0,0,8-8V144h16a8,8,0,0,0,6.146-13.121l-40-48a8,8,0,0,0-12.292,0l-40,48A8,8,0,0,0,104,144Zm40-43.5L166.92,128H160a8,8,0,0,0-8,8v48H136V136a8,8,0,0,0-8-8h-6.92Z" fill="url(#d)"/></g></svg>
