<svg id="Capa_1" enable-background="new 0 0 512 512" height="512" viewBox="0 0 512 512" width="512" xmlns="http://www.w3.org/2000/svg"><g><circle cx="256" cy="256" fill="#9dcfff" r="256"/><g><path d="m509.383 292.607-236.486-236.486h-27.519l-28.817 83.474-80.642 50.997-15.999 43.12 66.509 66.509-56.509 35.915-10 38.696 65.023 65.023-11.503 22.748 46.915 46.915c11.651 1.623 23.547 2.482 35.645 2.482 128.954 0 235.62-95.352 253.383-219.393z" fill="#4cb8eb"/></g><g><path d="m139.92 233.711h-20v-23.12l20-10z" fill="#fff"/><path d="m392.08 233.711h-20v-33.12l20 10z" fill="#e5eaee"/><path d="m139.92 374.831h-20v-23.12l20-10z" fill="#fff"/><path d="m392.08 374.831h-20v-33.12l20 10z" fill="#e5eaee"/></g><g><path d="m224.96 224.734 16.897 16.897-16.897 16.897zm-25.656 205.966 11.685-67.025 30.437 33.797zm27.826-78.989h28.87v-20h-39.439l6.806-39.04h32.633v-20h-16.897l16.897-16.897 10-14.143-10-14.143-31.04-31.04v-53.071l26.855-71.087c.951-2.518 3.03-2.894 4.185-2.894l10-9.1-10-10.9c-10.276 0-19.263 6.212-22.894 15.825l-27.5 72.795-.646 3.534v140.254l-31.52 180.798h17.713l64.847-51.153 10-14.262-10-13.419z" fill="#09607d"/><path d="m307.04 281.805v-140.254l-.646-3.534-27.5-72.795c-3.632-9.613-12.618-15.825-22.895-15.825v20c1.155 0 3.234.376 4.185 2.894l26.855 71.087v53.071l-31.039 31.04v28.285l16.897 16.897h-16.897v20h32.633l6.806 39.04h-39.439v20h28.87l-28.87 32.057v27.681l64.847 51.154h17.713zm-20-23.276-16.897-16.897 16.897-16.897zm-16.466 138.942 30.437-33.797 11.685 67.025z" fill="#04303e"/></g><g><path d="m207.353 275.625-87.433 54.314v21.772h136.08l10-7.793-10-12.207h-101.032l58.09-36.087c3.108-1.93 6.693-2.953 10.351-2.953h32.591l10-11.023-10-8.977h-38.296c-1.821 0-3.632.253-5.383.753-1.75.5-3.422 1.24-4.968 2.201z" fill="#9f9fa4"/><path d="m154.968 190.591 58.09-36.087c3.108-1.93 6.693-2.953 10.351-2.953h32.591l10-8.551-10-11.449h-38.296c-1.821 0-3.632.253-5.383.753-1.75.499-3.422 1.24-4.968 2.2l-87.433 54.314v21.772h136.08l10-10-10-10h-101.032z" fill="#9f9fa4"/><g fill="#7d8186"><path d="m392.08 188.819-87.433-54.314c-1.546-.96-3.218-1.701-4.968-2.2-1.751-.5-3.563-.753-5.383-.753h-38.296v20h32.59c3.658 0 7.244 1.023 10.351 2.953l58.09 36.087h-101.031v20h136.08z"/><path d="m298.941 295.625 58.09 36.087h-101.031v20h136.08v-21.772l-87.433-54.314c-1.546-.96-3.218-1.701-4.968-2.2-1.751-.5-3.563-.753-5.383-.753h-38.296v20h32.59c3.658-.002 7.244 1.021 10.351 2.952z"/></g></g></g></svg>